<?xml version="1.0" encoding="UTF-8" standalone="no"?>
<!DOCTYPE svg PUBLIC "-//W3C//DTD SVG 1.1//EN"
 "http://www.w3.org/Graphics/SVG/1.1/DTD/svg11.dtd">
<!-- Generated by graphviz version 2.47.2 (0)
 -->
<!-- Title: snakemake_dag Pages: 1 -->
<svg width="2285pt" height="404pt"
 viewBox="0.00 0.00 2285.00 404.00" xmlns="http://www.w3.org/2000/svg" xmlns:xlink="http://www.w3.org/1999/xlink">
<g id="graph0" class="graph" transform="scale(1 1) rotate(0) translate(4 400)">
<title>snakemake_dag</title>
<polygon fill="white" stroke="transparent" points="-4,4 -4,-400 2281,-400 2281,4 -4,4"/>
<!-- 0 -->
<g id="node1" class="node">
<title>0</title>
<path fill="none" stroke="#56d89a" stroke-width="2" d="M1650,-36C1650,-36 1620,-36 1620,-36 1614,-36 1608,-30 1608,-24 1608,-24 1608,-12 1608,-12 1608,-6 1614,0 1620,0 1620,0 1650,0 1650,0 1656,0 1662,-6 1662,-12 1662,-12 1662,-24 1662,-24 1662,-30 1656,-36 1650,-36"/>
<text text-anchor="middle" x="1635" y="-15.5" font-family="sans" font-size="10.00">all</text>
</g>
<!-- 1 -->
<g id="node2" class="node">
<title>1</title>
<path fill="none" stroke="#56b1d8" stroke-width="2" d="M763.5,-108C763.5,-108 710.5,-108 710.5,-108 704.5,-108 698.5,-102 698.5,-96 698.5,-96 698.5,-84 698.5,-84 698.5,-78 704.5,-72 710.5,-72 710.5,-72 763.5,-72 763.5,-72 769.5,-72 775.5,-78 775.5,-84 775.5,-84 775.5,-96 775.5,-96 775.5,-102 769.5,-108 763.5,-108"/>
<text text-anchor="middle" x="737" y="-87.5" font-family="sans" font-size="10.00">reads_multiqc</text>
</g>
<!-- 1&#45;&gt;0 -->
<g id="edge1" class="edge">
<title>1&#45;&gt;0</title>
<path fill="none" stroke="grey" stroke-width="2" d="M775.59,-85.99C923.29,-74.48 1451.8,-33.28 1597.55,-21.92"/>
<polygon fill="grey" stroke="grey" stroke-width="2" points="1598.06,-25.39 1607.76,-21.12 1597.52,-18.41 1598.06,-25.39"/>
</g>
<!-- 2 -->
<g id="node3" class="node">
<title>2</title>
<path fill="none" stroke="#ced856" stroke-width="2" d="M178,-180C178,-180 12,-180 12,-180 6,-180 0,-174 0,-168 0,-168 0,-156 0,-156 0,-150 6,-144 12,-144 12,-144 178,-144 178,-144 184,-144 190,-150 190,-156 190,-156 190,-168 190,-168 190,-174 184,-180 178,-180"/>
<text text-anchor="middle" x="95" y="-165" font-family="sans" font-size="10.00">reads_fastqc</text>
<text text-anchor="middle" x="95" y="-154" font-family="sans" font-size="10.00">sample: GSM1102782_CD14_H3K27ac</text>
</g>
<!-- 2&#45;&gt;1 -->
<g id="edge14" class="edge">
<title>2&#45;&gt;1</title>
<path fill="none" stroke="grey" stroke-width="2" d="M190.18,-145.19C193.15,-144.78 196.1,-144.38 199,-144 378.85,-120.47 593.75,-102.26 688.3,-94.75"/>
<polygon fill="grey" stroke="grey" stroke-width="2" points="688.72,-98.23 698.41,-93.95 688.17,-91.25 688.72,-98.23"/>
</g>
<!-- 3 -->
<g id="node4" class="node">
<title>3</title>
<path fill="none" stroke="#ced856" stroke-width="2" d="M394,-180C394,-180 220,-180 220,-180 214,-180 208,-174 208,-168 208,-168 208,-156 208,-156 208,-150 214,-144 220,-144 220,-144 394,-144 394,-144 400,-144 406,-150 406,-156 406,-156 406,-168 406,-168 406,-174 400,-180 394,-180"/>
<text text-anchor="middle" x="307" y="-165" font-family="sans" font-size="10.00">reads_fastqc</text>
<text text-anchor="middle" x="307" y="-154" font-family="sans" font-size="10.00">sample: GSM1102785_CD14_H3K27me3</text>
</g>
<!-- 3&#45;&gt;1 -->
<g id="edge15" class="edge">
<title>3&#45;&gt;1</title>
<path fill="none" stroke="grey" stroke-width="2" d="M406.19,-144.85C494.54,-130.47 620.08,-110.03 688.3,-98.93"/>
<polygon fill="grey" stroke="grey" stroke-width="2" points="689.03,-102.36 698.34,-97.29 687.9,-95.45 689.03,-102.36"/>
</g>
<!-- 4 -->
<g id="node5" class="node">
<title>4</title>
<path fill="none" stroke="#ced856" stroke-width="2" d="M610,-180C610,-180 436,-180 436,-180 430,-180 424,-174 424,-168 424,-168 424,-156 424,-156 424,-150 430,-144 436,-144 436,-144 610,-144 610,-144 616,-144 622,-150 622,-156 622,-156 622,-168 622,-168 622,-174 616,-180 610,-180"/>
<text text-anchor="middle" x="523" y="-165" font-family="sans" font-size="10.00">reads_fastqc</text>
<text text-anchor="middle" x="523" y="-154" font-family="sans" font-size="10.00">sample: GSM1102788_CD14_H3K36me3</text>
</g>
<!-- 4&#45;&gt;1 -->
<g id="edge16" class="edge">
<title>4&#45;&gt;1</title>
<path fill="none" stroke="grey" stroke-width="2" d="M575.08,-143.97C609.65,-132.66 654.71,-117.92 688.52,-106.86"/>
<polygon fill="grey" stroke="grey" stroke-width="2" points="689.76,-110.13 698.18,-103.7 687.59,-103.48 689.76,-110.13"/>
</g>
<!-- 5 -->
<g id="node6" class="node">
<title>5</title>
<path fill="none" stroke="#ced856" stroke-width="2" d="M821.5,-180C821.5,-180 652.5,-180 652.5,-180 646.5,-180 640.5,-174 640.5,-168 640.5,-168 640.5,-156 640.5,-156 640.5,-150 646.5,-144 652.5,-144 652.5,-144 821.5,-144 821.5,-144 827.5,-144 833.5,-150 833.5,-156 833.5,-156 833.5,-168 833.5,-168 833.5,-174 827.5,-180 821.5,-180"/>
<text text-anchor="middle" x="737" y="-165" font-family="sans" font-size="10.00">reads_fastqc</text>
<text text-anchor="middle" x="737" y="-154" font-family="sans" font-size="10.00">sample: GSM1102793_CD14_H3K4me1</text>
</g>
<!-- 5&#45;&gt;1 -->
<g id="edge17" class="edge">
<title>5&#45;&gt;1</title>
<path fill="none" stroke="grey" stroke-width="2" d="M737,-143.7C737,-135.98 737,-126.71 737,-118.11"/>
<polygon fill="grey" stroke="grey" stroke-width="2" points="740.5,-118.1 737,-108.1 733.5,-118.1 740.5,-118.1"/>
</g>
<!-- 6 -->
<g id="node7" class="node">
<title>6</title>
<path fill="none" stroke="#ced856" stroke-width="2" d="M1032.5,-180C1032.5,-180 863.5,-180 863.5,-180 857.5,-180 851.5,-174 851.5,-168 851.5,-168 851.5,-156 851.5,-156 851.5,-150 857.5,-144 863.5,-144 863.5,-144 1032.5,-144 1032.5,-144 1038.5,-144 1044.5,-150 1044.5,-156 1044.5,-156 1044.5,-168 1044.5,-168 1044.5,-174 1038.5,-180 1032.5,-180"/>
<text text-anchor="middle" x="948" y="-165" font-family="sans" font-size="10.00">reads_fastqc</text>
<text text-anchor="middle" x="948" y="-154" font-family="sans" font-size="10.00">sample: GSM1102797_CD14_H3K4me3</text>
</g>
<!-- 6&#45;&gt;1 -->
<g id="edge18" class="edge">
<title>6&#45;&gt;1</title>
<path fill="none" stroke="grey" stroke-width="2" d="M896.65,-143.97C862.68,-132.69 818.43,-118.01 785.13,-106.97"/>
<polygon fill="grey" stroke="grey" stroke-width="2" points="786.2,-103.64 775.61,-103.81 784,-110.28 786.2,-103.64"/>
</g>
<!-- 7 -->
<g id="node8" class="node">
<title>7</title>
<path fill="none" stroke="#ced856" stroke-width="2" d="M1221,-180C1221,-180 1075,-180 1075,-180 1069,-180 1063,-174 1063,-168 1063,-168 1063,-156 1063,-156 1063,-150 1069,-144 1075,-144 1075,-144 1221,-144 1221,-144 1227,-144 1233,-150 1233,-156 1233,-156 1233,-168 1233,-168 1233,-174 1227,-180 1221,-180"/>
<text text-anchor="middle" x="1148" y="-165" font-family="sans" font-size="10.00">reads_fastqc</text>
<text text-anchor="middle" x="1148" y="-154" font-family="sans" font-size="10.00">sample: GSM1102807_CD14_input</text>
</g>
<!-- 7&#45;&gt;1 -->
<g id="edge19" class="edge">
<title>7&#45;&gt;1</title>
<path fill="none" stroke="grey" stroke-width="2" d="M1062.81,-145.71C1059.5,-145.13 1056.22,-144.56 1053,-144 958.51,-127.62 847.97,-109.27 785.85,-99.02"/>
<polygon fill="grey" stroke="grey" stroke-width="2" points="786.38,-95.56 775.94,-97.39 785.24,-102.47 786.38,-95.56"/>
</g>
<!-- 8 -->
<g id="node9" class="node">
<title>8</title>
<path fill="none" stroke="#70d856" stroke-width="2" d="M1255,-108C1255,-108 1225,-108 1225,-108 1219,-108 1213,-102 1213,-96 1213,-96 1213,-84 1213,-84 1213,-78 1219,-72 1225,-72 1225,-72 1255,-72 1255,-72 1261,-72 1267,-78 1267,-84 1267,-84 1267,-96 1267,-96 1267,-102 1261,-108 1255,-108"/>
<text text-anchor="middle" x="1240" y="-87.5" font-family="sans" font-size="10.00">callpeak</text>
</g>
<!-- 8&#45;&gt;0 -->
<g id="edge2" class="edge">
<title>8&#45;&gt;0</title>
<path fill="none" stroke="grey" stroke-width="2" d="M1267.19,-75.15C1270.12,-73.96 1273.09,-72.88 1276,-72 1389.96,-37.51 1531.3,-25.06 1597.5,-20.9"/>
<polygon fill="grey" stroke="grey" stroke-width="2" points="1598.06,-24.38 1607.84,-20.29 1597.65,-17.39 1598.06,-24.38"/>
</g>
<!-- 9 -->
<g id="node10" class="node">
<title>9</title>
<path fill="none" stroke="#d8b456" stroke-width="2" d="M1296.5,-180C1296.5,-180 1263.5,-180 1263.5,-180 1257.5,-180 1251.5,-174 1251.5,-168 1251.5,-168 1251.5,-156 1251.5,-156 1251.5,-150 1257.5,-144 1263.5,-144 1263.5,-144 1296.5,-144 1296.5,-144 1302.5,-144 1308.5,-150 1308.5,-156 1308.5,-156 1308.5,-168 1308.5,-168 1308.5,-174 1302.5,-180 1296.5,-180"/>
<text text-anchor="middle" x="1280" y="-159.5" font-family="sans" font-size="10.00">bam_sort</text>
</g>
<!-- 9&#45;&gt;8 -->
<g id="edge20" class="edge">
<title>9&#45;&gt;8</title>
<path fill="none" stroke="grey" stroke-width="2" d="M1270.11,-143.7C1265.51,-135.64 1259.94,-125.89 1254.85,-116.98"/>
<polygon fill="grey" stroke="grey" stroke-width="2" points="1257.77,-115.05 1249.77,-108.1 1251.7,-118.52 1257.77,-115.05"/>
</g>
<!-- 28 -->
<g id="node29" class="node">
<title>28</title>
<path fill="none" stroke="#56d86b" stroke-width="2" d="M1341,-108C1341,-108 1297,-108 1297,-108 1291,-108 1285,-102 1285,-96 1285,-96 1285,-84 1285,-84 1285,-78 1291,-72 1297,-72 1297,-72 1341,-72 1341,-72 1347,-72 1353,-78 1353,-84 1353,-84 1353,-96 1353,-96 1353,-102 1347,-108 1341,-108"/>
<text text-anchor="middle" x="1319" y="-87.5" font-family="sans" font-size="10.00">bam_bigwig</text>
</g>
<!-- 9&#45;&gt;28 -->
<g id="edge39" class="edge">
<title>9&#45;&gt;28</title>
<path fill="none" stroke="grey" stroke-width="2" d="M1289.64,-143.7C1294.13,-135.64 1299.56,-125.89 1304.52,-116.98"/>
<polygon fill="grey" stroke="grey" stroke-width="2" points="1307.66,-118.54 1309.47,-108.1 1301.55,-115.14 1307.66,-118.54"/>
</g>
<!-- 10 -->
<g id="node11" class="node">
<title>10</title>
<path fill="none" stroke="#d85656" stroke-width="2" d="M1222,-252C1222,-252 1056,-252 1056,-252 1050,-252 1044,-246 1044,-240 1044,-240 1044,-228 1044,-228 1044,-222 1050,-216 1056,-216 1056,-216 1222,-216 1222,-216 1228,-216 1234,-222 1234,-228 1234,-228 1234,-240 1234,-240 1234,-246 1228,-252 1222,-252"/>
<text text-anchor="middle" x="1139" y="-237" font-family="sans" font-size="10.00">align_reads_se</text>
<text text-anchor="middle" x="1139" y="-226" font-family="sans" font-size="10.00">sample: GSM1102782_CD14_H3K27ac</text>
</g>
<!-- 10&#45;&gt;9 -->
<g id="edge21" class="edge">
<title>10&#45;&gt;9</title>
<path fill="none" stroke="grey" stroke-width="2" d="M1173.49,-215.88C1194.23,-205.58 1220.65,-192.46 1241.99,-181.87"/>
<polygon fill="grey" stroke="grey" stroke-width="2" points="1243.69,-184.93 1251.09,-177.35 1240.58,-178.66 1243.69,-184.93"/>
</g>
<!-- 11 -->
<g id="node12" class="node">
<title>11</title>
<path fill="none" stroke="#5682d8" stroke-width="2" d="M1701.5,-324C1701.5,-324 1646.5,-324 1646.5,-324 1640.5,-324 1634.5,-318 1634.5,-312 1634.5,-312 1634.5,-300 1634.5,-300 1634.5,-294 1640.5,-288 1646.5,-288 1646.5,-288 1701.5,-288 1701.5,-288 1707.5,-288 1713.5,-294 1713.5,-300 1713.5,-300 1713.5,-312 1713.5,-312 1713.5,-318 1707.5,-324 1701.5,-324"/>
<text text-anchor="middle" x="1674" y="-303.5" font-family="sans" font-size="10.00">bowtie2_index</text>
</g>
<!-- 11&#45;&gt;10 -->
<g id="edge22" class="edge">
<title>11&#45;&gt;10</title>
<path fill="none" stroke="grey" stroke-width="2" d="M1634.41,-300.66C1560.12,-292.41 1394.51,-273.47 1244.51,-252.19"/>
<polygon fill="grey" stroke="grey" stroke-width="2" points="1244.59,-248.66 1234.19,-250.72 1243.6,-255.59 1244.59,-248.66"/>
</g>
<!-- 15 -->
<g id="node16" class="node">
<title>15</title>
<path fill="none" stroke="#d85656" stroke-width="2" d="M1438,-252C1438,-252 1264,-252 1264,-252 1258,-252 1252,-246 1252,-240 1252,-240 1252,-228 1252,-228 1252,-222 1258,-216 1264,-216 1264,-216 1438,-216 1438,-216 1444,-216 1450,-222 1450,-228 1450,-228 1450,-240 1450,-240 1450,-246 1444,-252 1438,-252"/>
<text text-anchor="middle" x="1351" y="-237" font-family="sans" font-size="10.00">align_reads_se</text>
<text text-anchor="middle" x="1351" y="-226" font-family="sans" font-size="10.00">sample: GSM1102785_CD14_H3K27me3</text>
</g>
<!-- 11&#45;&gt;15 -->
<g id="edge26" class="edge">
<title>11&#45;&gt;15</title>
<path fill="none" stroke="grey" stroke-width="2" d="M1634.39,-296.42C1586.18,-285.97 1503.32,-268.01 1439.62,-254.2"/>
<polygon fill="grey" stroke="grey" stroke-width="2" points="1440.08,-250.72 1429.56,-252.03 1438.59,-257.56 1440.08,-250.72"/>
</g>
<!-- 18 -->
<g id="node19" class="node">
<title>18</title>
<path fill="none" stroke="#d85656" stroke-width="2" d="M1654,-252C1654,-252 1480,-252 1480,-252 1474,-252 1468,-246 1468,-240 1468,-240 1468,-228 1468,-228 1468,-222 1474,-216 1480,-216 1480,-216 1654,-216 1654,-216 1660,-216 1666,-222 1666,-228 1666,-228 1666,-240 1666,-240 1666,-246 1660,-252 1654,-252"/>
<text text-anchor="middle" x="1567" y="-237" font-family="sans" font-size="10.00">align_reads_se</text>
<text text-anchor="middle" x="1567" y="-226" font-family="sans" font-size="10.00">sample: GSM1102788_CD14_H3K36me3</text>
</g>
<!-- 11&#45;&gt;18 -->
<g id="edge29" class="edge">
<title>11&#45;&gt;18</title>
<path fill="none" stroke="grey" stroke-width="2" d="M1647.82,-287.88C1633.96,-278.81 1616.76,-267.55 1601.79,-257.76"/>
<polygon fill="grey" stroke="grey" stroke-width="2" points="1603.56,-254.74 1593.28,-252.19 1599.73,-260.59 1603.56,-254.74"/>
</g>
<!-- 21 -->
<g id="node22" class="node">
<title>21</title>
<path fill="none" stroke="#d85656" stroke-width="2" d="M1865.5,-252C1865.5,-252 1696.5,-252 1696.5,-252 1690.5,-252 1684.5,-246 1684.5,-240 1684.5,-240 1684.5,-228 1684.5,-228 1684.5,-222 1690.5,-216 1696.5,-216 1696.5,-216 1865.5,-216 1865.5,-216 1871.5,-216 1877.5,-222 1877.5,-228 1877.5,-228 1877.5,-240 1877.5,-240 1877.5,-246 1871.5,-252 1865.5,-252"/>
<text text-anchor="middle" x="1781" y="-237" font-family="sans" font-size="10.00">align_reads_se</text>
<text text-anchor="middle" x="1781" y="-226" font-family="sans" font-size="10.00">sample: GSM1102793_CD14_H3K4me1</text>
</g>
<!-- 11&#45;&gt;21 -->
<g id="edge32" class="edge">
<title>11&#45;&gt;21</title>
<path fill="none" stroke="grey" stroke-width="2" d="M1700.18,-287.88C1714.04,-278.81 1731.24,-267.55 1746.21,-257.76"/>
<polygon fill="grey" stroke="grey" stroke-width="2" points="1748.27,-260.59 1754.72,-252.19 1744.44,-254.74 1748.27,-260.59"/>
</g>
<!-- 24 -->
<g id="node25" class="node">
<title>24</title>
<path fill="none" stroke="#d85656" stroke-width="2" d="M2076.5,-252C2076.5,-252 1907.5,-252 1907.5,-252 1901.5,-252 1895.5,-246 1895.5,-240 1895.5,-240 1895.5,-228 1895.5,-228 1895.5,-222 1901.5,-216 1907.5,-216 1907.5,-216 2076.5,-216 2076.5,-216 2082.5,-216 2088.5,-222 2088.5,-228 2088.5,-228 2088.5,-240 2088.5,-240 2088.5,-246 2082.5,-252 2076.5,-252"/>
<text text-anchor="middle" x="1992" y="-237" font-family="sans" font-size="10.00">align_reads_se</text>
<text text-anchor="middle" x="1992" y="-226" font-family="sans" font-size="10.00">sample: GSM1102797_CD14_H3K4me3</text>
</g>
<!-- 11&#45;&gt;24 -->
<g id="edge35" class="edge">
<title>11&#45;&gt;24</title>
<path fill="none" stroke="grey" stroke-width="2" d="M1713.63,-296.28C1761.2,-285.8 1842.37,-267.94 1904.82,-254.19"/>
<polygon fill="grey" stroke="grey" stroke-width="2" points="1905.66,-257.59 1914.67,-252.02 1904.15,-250.75 1905.66,-257.59"/>
</g>
<!-- 27 -->
<g id="node28" class="node">
<title>27</title>
<path fill="none" stroke="#d85656" stroke-width="2" d="M2265,-252C2265,-252 2119,-252 2119,-252 2113,-252 2107,-246 2107,-240 2107,-240 2107,-228 2107,-228 2107,-222 2113,-216 2119,-216 2119,-216 2265,-216 2265,-216 2271,-216 2277,-222 2277,-228 2277,-228 2277,-240 2277,-240 2277,-246 2271,-252 2265,-252"/>
<text text-anchor="middle" x="2192" y="-237" font-family="sans" font-size="10.00">align_reads_se</text>
<text text-anchor="middle" x="2192" y="-226" font-family="sans" font-size="10.00">sample: GSM1102807_CD14_input</text>
</g>
<!-- 11&#45;&gt;27 -->
<g id="edge38" class="edge">
<title>11&#45;&gt;27</title>
<path fill="none" stroke="grey" stroke-width="2" d="M1713.56,-300.78C1786.98,-292.8 1949.5,-274.39 2096.85,-252.13"/>
<polygon fill="grey" stroke="grey" stroke-width="2" points="2097.62,-255.55 2106.98,-250.59 2096.57,-248.63 2097.62,-255.55"/>
</g>
<!-- 12 -->
<g id="node13" class="node">
<title>12</title>
<path fill="none" stroke="#d88556" stroke-width="2" d="M1714,-396C1714,-396 1634,-396 1634,-396 1628,-396 1622,-390 1622,-384 1622,-384 1622,-372 1622,-372 1622,-366 1628,-360 1634,-360 1634,-360 1714,-360 1714,-360 1720,-360 1726,-366 1726,-372 1726,-372 1726,-384 1726,-384 1726,-390 1720,-396 1714,-396"/>
<text text-anchor="middle" x="1674" y="-381" font-family="sans" font-size="10.00">download_reference</text>
<text text-anchor="middle" x="1674" y="-370" font-family="sans" font-size="10.00">genome: hg19</text>
</g>
<!-- 12&#45;&gt;11 -->
<g id="edge23" class="edge">
<title>12&#45;&gt;11</title>
<path fill="none" stroke="grey" stroke-width="2" d="M1674,-359.7C1674,-351.98 1674,-342.71 1674,-334.11"/>
<polygon fill="grey" stroke="grey" stroke-width="2" points="1677.5,-334.1 1674,-324.1 1670.5,-334.1 1677.5,-334.1"/>
</g>
<!-- 13 -->
<g id="node14" class="node">
<title>13</title>
<path fill="none" stroke="#70d856" stroke-width="2" d="M1413,-108C1413,-108 1383,-108 1383,-108 1377,-108 1371,-102 1371,-96 1371,-96 1371,-84 1371,-84 1371,-78 1377,-72 1383,-72 1383,-72 1413,-72 1413,-72 1419,-72 1425,-78 1425,-84 1425,-84 1425,-96 1425,-96 1425,-102 1419,-108 1413,-108"/>
<text text-anchor="middle" x="1398" y="-87.5" font-family="sans" font-size="10.00">callpeak</text>
</g>
<!-- 13&#45;&gt;0 -->
<g id="edge3" class="edge">
<title>13&#45;&gt;0</title>
<path fill="none" stroke="grey" stroke-width="2" d="M1425.3,-75.48C1428.2,-74.23 1431.14,-73.04 1434,-72 1489.95,-51.61 1557.29,-35.48 1598.08,-26.6"/>
<polygon fill="grey" stroke="grey" stroke-width="2" points="1598.82,-30.02 1607.86,-24.5 1597.35,-23.18 1598.82,-30.02"/>
</g>
<!-- 14 -->
<g id="node15" class="node">
<title>14</title>
<path fill="none" stroke="#d8b456" stroke-width="2" d="M1414.5,-180C1414.5,-180 1381.5,-180 1381.5,-180 1375.5,-180 1369.5,-174 1369.5,-168 1369.5,-168 1369.5,-156 1369.5,-156 1369.5,-150 1375.5,-144 1381.5,-144 1381.5,-144 1414.5,-144 1414.5,-144 1420.5,-144 1426.5,-150 1426.5,-156 1426.5,-156 1426.5,-168 1426.5,-168 1426.5,-174 1420.5,-180 1414.5,-180"/>
<text text-anchor="middle" x="1398" y="-159.5" font-family="sans" font-size="10.00">bam_sort</text>
</g>
<!-- 14&#45;&gt;13 -->
<g id="edge24" class="edge">
<title>14&#45;&gt;13</title>
<path fill="none" stroke="grey" stroke-width="2" d="M1398,-143.7C1398,-135.98 1398,-126.71 1398,-118.11"/>
<polygon fill="grey" stroke="grey" stroke-width="2" points="1401.5,-118.1 1398,-108.1 1394.5,-118.1 1401.5,-118.1"/>
</g>
<!-- 29 -->
<g id="node30" class="node">
<title>29</title>
<path fill="none" stroke="#56d86b" stroke-width="2" d="M1499,-108C1499,-108 1455,-108 1455,-108 1449,-108 1443,-102 1443,-96 1443,-96 1443,-84 1443,-84 1443,-78 1449,-72 1455,-72 1455,-72 1499,-72 1499,-72 1505,-72 1511,-78 1511,-84 1511,-84 1511,-96 1511,-96 1511,-102 1505,-108 1499,-108"/>
<text text-anchor="middle" x="1477" y="-87.5" font-family="sans" font-size="10.00">bam_bigwig</text>
</g>
<!-- 14&#45;&gt;29 -->
<g id="edge40" class="edge">
<title>14&#45;&gt;29</title>
<path fill="none" stroke="grey" stroke-width="2" d="M1417.53,-143.7C1427.38,-134.97 1439.49,-124.24 1450.2,-114.75"/>
<polygon fill="grey" stroke="grey" stroke-width="2" points="1452.53,-117.36 1457.7,-108.1 1447.89,-112.12 1452.53,-117.36"/>
</g>
<!-- 15&#45;&gt;14 -->
<g id="edge25" class="edge">
<title>15&#45;&gt;14</title>
<path fill="none" stroke="grey" stroke-width="2" d="M1362.62,-215.7C1368.14,-207.47 1374.85,-197.48 1380.93,-188.42"/>
<polygon fill="grey" stroke="grey" stroke-width="2" points="1383.85,-190.36 1386.52,-180.1 1378.04,-186.46 1383.85,-190.36"/>
</g>
<!-- 16 -->
<g id="node17" class="node">
<title>16</title>
<path fill="none" stroke="#70d856" stroke-width="2" d="M1571,-108C1571,-108 1541,-108 1541,-108 1535,-108 1529,-102 1529,-96 1529,-96 1529,-84 1529,-84 1529,-78 1535,-72 1541,-72 1541,-72 1571,-72 1571,-72 1577,-72 1583,-78 1583,-84 1583,-84 1583,-96 1583,-96 1583,-102 1577,-108 1571,-108"/>
<text text-anchor="middle" x="1556" y="-87.5" font-family="sans" font-size="10.00">callpeak</text>
</g>
<!-- 16&#45;&gt;0 -->
<g id="edge4" class="edge">
<title>16&#45;&gt;0</title>
<path fill="none" stroke="grey" stroke-width="2" d="M1575.53,-71.7C1585.38,-62.97 1597.49,-52.24 1608.2,-42.75"/>
<polygon fill="grey" stroke="grey" stroke-width="2" points="1610.53,-45.36 1615.7,-36.1 1605.89,-40.12 1610.53,-45.36"/>
</g>
<!-- 17 -->
<g id="node18" class="node">
<title>17</title>
<path fill="none" stroke="#d8b456" stroke-width="2" d="M1583.5,-180C1583.5,-180 1550.5,-180 1550.5,-180 1544.5,-180 1538.5,-174 1538.5,-168 1538.5,-168 1538.5,-156 1538.5,-156 1538.5,-150 1544.5,-144 1550.5,-144 1550.5,-144 1583.5,-144 1583.5,-144 1589.5,-144 1595.5,-150 1595.5,-156 1595.5,-156 1595.5,-168 1595.5,-168 1595.5,-174 1589.5,-180 1583.5,-180"/>
<text text-anchor="middle" x="1567" y="-159.5" font-family="sans" font-size="10.00">bam_sort</text>
</g>
<!-- 17&#45;&gt;16 -->
<g id="edge27" class="edge">
<title>17&#45;&gt;16</title>
<path fill="none" stroke="grey" stroke-width="2" d="M1564.28,-143.7C1563.07,-135.98 1561.61,-126.71 1560.26,-118.11"/>
<polygon fill="grey" stroke="grey" stroke-width="2" points="1563.7,-117.44 1558.69,-108.1 1556.78,-118.53 1563.7,-117.44"/>
</g>
<!-- 30 -->
<g id="node31" class="node">
<title>30</title>
<path fill="none" stroke="#56d86b" stroke-width="2" d="M1657,-108C1657,-108 1613,-108 1613,-108 1607,-108 1601,-102 1601,-96 1601,-96 1601,-84 1601,-84 1601,-78 1607,-72 1613,-72 1613,-72 1657,-72 1657,-72 1663,-72 1669,-78 1669,-84 1669,-84 1669,-96 1669,-96 1669,-102 1663,-108 1657,-108"/>
<text text-anchor="middle" x="1635" y="-87.5" font-family="sans" font-size="10.00">bam_bigwig</text>
</g>
<!-- 17&#45;&gt;30 -->
<g id="edge41" class="edge">
<title>17&#45;&gt;30</title>
<path fill="none" stroke="grey" stroke-width="2" d="M1583.81,-143.7C1592.13,-135.14 1602.31,-124.66 1611.39,-115.3"/>
<polygon fill="grey" stroke="grey" stroke-width="2" points="1613.93,-117.72 1618.38,-108.1 1608.91,-112.84 1613.93,-117.72"/>
</g>
<!-- 18&#45;&gt;17 -->
<g id="edge28" class="edge">
<title>18&#45;&gt;17</title>
<path fill="none" stroke="grey" stroke-width="2" d="M1567,-215.7C1567,-207.98 1567,-198.71 1567,-190.11"/>
<polygon fill="grey" stroke="grey" stroke-width="2" points="1570.5,-190.1 1567,-180.1 1563.5,-190.1 1570.5,-190.1"/>
</g>
<!-- 19 -->
<g id="node20" class="node">
<title>19</title>
<path fill="none" stroke="#70d856" stroke-width="2" d="M1729,-108C1729,-108 1699,-108 1699,-108 1693,-108 1687,-102 1687,-96 1687,-96 1687,-84 1687,-84 1687,-78 1693,-72 1699,-72 1699,-72 1729,-72 1729,-72 1735,-72 1741,-78 1741,-84 1741,-84 1741,-96 1741,-96 1741,-102 1735,-108 1729,-108"/>
<text text-anchor="middle" x="1714" y="-87.5" font-family="sans" font-size="10.00">callpeak</text>
</g>
<!-- 19&#45;&gt;0 -->
<g id="edge5" class="edge">
<title>19&#45;&gt;0</title>
<path fill="none" stroke="grey" stroke-width="2" d="M1694.47,-71.7C1684.62,-62.97 1672.51,-52.24 1661.8,-42.75"/>
<polygon fill="grey" stroke="grey" stroke-width="2" points="1664.11,-40.12 1654.3,-36.1 1659.47,-45.36 1664.11,-40.12"/>
</g>
<!-- 20 -->
<g id="node21" class="node">
<title>20</title>
<path fill="none" stroke="#d8b456" stroke-width="2" d="M1797.5,-180C1797.5,-180 1764.5,-180 1764.5,-180 1758.5,-180 1752.5,-174 1752.5,-168 1752.5,-168 1752.5,-156 1752.5,-156 1752.5,-150 1758.5,-144 1764.5,-144 1764.5,-144 1797.5,-144 1797.5,-144 1803.5,-144 1809.5,-150 1809.5,-156 1809.5,-156 1809.5,-168 1809.5,-168 1809.5,-174 1803.5,-180 1797.5,-180"/>
<text text-anchor="middle" x="1781" y="-159.5" font-family="sans" font-size="10.00">bam_sort</text>
</g>
<!-- 20&#45;&gt;19 -->
<g id="edge30" class="edge">
<title>20&#45;&gt;19</title>
<path fill="none" stroke="grey" stroke-width="2" d="M1764.44,-143.7C1756.32,-135.22 1746.41,-124.86 1737.53,-115.58"/>
<polygon fill="grey" stroke="grey" stroke-width="2" points="1739.81,-112.91 1730.37,-108.1 1734.76,-117.75 1739.81,-112.91"/>
</g>
<!-- 31 -->
<g id="node32" class="node">
<title>31</title>
<path fill="none" stroke="#56d86b" stroke-width="2" d="M1815,-108C1815,-108 1771,-108 1771,-108 1765,-108 1759,-102 1759,-96 1759,-96 1759,-84 1759,-84 1759,-78 1765,-72 1771,-72 1771,-72 1815,-72 1815,-72 1821,-72 1827,-78 1827,-84 1827,-84 1827,-96 1827,-96 1827,-102 1821,-108 1815,-108"/>
<text text-anchor="middle" x="1793" y="-87.5" font-family="sans" font-size="10.00">bam_bigwig</text>
</g>
<!-- 20&#45;&gt;31 -->
<g id="edge42" class="edge">
<title>20&#45;&gt;31</title>
<path fill="none" stroke="grey" stroke-width="2" d="M1783.97,-143.7C1785.29,-135.98 1786.88,-126.71 1788.35,-118.11"/>
<polygon fill="grey" stroke="grey" stroke-width="2" points="1791.83,-118.55 1790.07,-108.1 1784.93,-117.37 1791.83,-118.55"/>
</g>
<!-- 21&#45;&gt;20 -->
<g id="edge31" class="edge">
<title>21&#45;&gt;20</title>
<path fill="none" stroke="grey" stroke-width="2" d="M1781,-215.7C1781,-207.98 1781,-198.71 1781,-190.11"/>
<polygon fill="grey" stroke="grey" stroke-width="2" points="1784.5,-190.1 1781,-180.1 1777.5,-190.1 1784.5,-190.1"/>
</g>
<!-- 22 -->
<g id="node23" class="node">
<title>22</title>
<path fill="none" stroke="#70d856" stroke-width="2" d="M1887,-108C1887,-108 1857,-108 1857,-108 1851,-108 1845,-102 1845,-96 1845,-96 1845,-84 1845,-84 1845,-78 1851,-72 1857,-72 1857,-72 1887,-72 1887,-72 1893,-72 1899,-78 1899,-84 1899,-84 1899,-96 1899,-96 1899,-102 1893,-108 1887,-108"/>
<text text-anchor="middle" x="1872" y="-87.5" font-family="sans" font-size="10.00">callpeak</text>
</g>
<!-- 22&#45;&gt;0 -->
<g id="edge6" class="edge">
<title>22&#45;&gt;0</title>
<path fill="none" stroke="grey" stroke-width="2" d="M1844.7,-75.48C1841.8,-74.23 1838.86,-73.04 1836,-72 1780.05,-51.61 1712.71,-35.48 1671.92,-26.6"/>
<polygon fill="grey" stroke="grey" stroke-width="2" points="1672.65,-23.18 1662.14,-24.5 1671.18,-30.02 1672.65,-23.18"/>
</g>
<!-- 23 -->
<g id="node24" class="node">
<title>23</title>
<path fill="none" stroke="#d8b456" stroke-width="2" d="M1967.5,-180C1967.5,-180 1934.5,-180 1934.5,-180 1928.5,-180 1922.5,-174 1922.5,-168 1922.5,-168 1922.5,-156 1922.5,-156 1922.5,-150 1928.5,-144 1934.5,-144 1934.5,-144 1967.5,-144 1967.5,-144 1973.5,-144 1979.5,-150 1979.5,-156 1979.5,-156 1979.5,-168 1979.5,-168 1979.5,-174 1973.5,-180 1967.5,-180"/>
<text text-anchor="middle" x="1951" y="-159.5" font-family="sans" font-size="10.00">bam_sort</text>
</g>
<!-- 23&#45;&gt;22 -->
<g id="edge33" class="edge">
<title>23&#45;&gt;22</title>
<path fill="none" stroke="grey" stroke-width="2" d="M1931.47,-143.7C1921.62,-134.97 1909.51,-124.24 1898.8,-114.75"/>
<polygon fill="grey" stroke="grey" stroke-width="2" points="1901.11,-112.12 1891.3,-108.1 1896.47,-117.36 1901.11,-112.12"/>
</g>
<!-- 32 -->
<g id="node33" class="node">
<title>32</title>
<path fill="none" stroke="#56d86b" stroke-width="2" d="M1973,-108C1973,-108 1929,-108 1929,-108 1923,-108 1917,-102 1917,-96 1917,-96 1917,-84 1917,-84 1917,-78 1923,-72 1929,-72 1929,-72 1973,-72 1973,-72 1979,-72 1985,-78 1985,-84 1985,-84 1985,-96 1985,-96 1985,-102 1979,-108 1973,-108"/>
<text text-anchor="middle" x="1951" y="-87.5" font-family="sans" font-size="10.00">bam_bigwig</text>
</g>
<!-- 23&#45;&gt;32 -->
<g id="edge43" class="edge">
<title>23&#45;&gt;32</title>
<path fill="none" stroke="grey" stroke-width="2" d="M1951,-143.7C1951,-135.98 1951,-126.71 1951,-118.11"/>
<polygon fill="grey" stroke="grey" stroke-width="2" points="1954.5,-118.1 1951,-108.1 1947.5,-118.1 1954.5,-118.1"/>
</g>
<!-- 24&#45;&gt;23 -->
<g id="edge34" class="edge">
<title>24&#45;&gt;23</title>
<path fill="none" stroke="grey" stroke-width="2" d="M1981.87,-215.7C1977.15,-207.64 1971.44,-197.89 1966.22,-188.98"/>
<polygon fill="grey" stroke="grey" stroke-width="2" points="1969.09,-186.96 1961.02,-180.1 1963.05,-190.5 1969.09,-186.96"/>
</g>
<!-- 25 -->
<g id="node26" class="node">
<title>25</title>
<path fill="none" stroke="#70d856" stroke-width="2" d="M2045,-108C2045,-108 2015,-108 2015,-108 2009,-108 2003,-102 2003,-96 2003,-96 2003,-84 2003,-84 2003,-78 2009,-72 2015,-72 2015,-72 2045,-72 2045,-72 2051,-72 2057,-78 2057,-84 2057,-84 2057,-96 2057,-96 2057,-102 2051,-108 2045,-108"/>
<text text-anchor="middle" x="2030" y="-87.5" font-family="sans" font-size="10.00">callpeak</text>
</g>
<!-- 25&#45;&gt;0 -->
<g id="edge7" class="edge">
<title>25&#45;&gt;0</title>
<path fill="none" stroke="grey" stroke-width="2" d="M2002.81,-75.15C1999.88,-73.96 1996.91,-72.88 1994,-72 1880.04,-37.51 1738.7,-25.06 1672.5,-20.9"/>
<polygon fill="grey" stroke="grey" stroke-width="2" points="1672.35,-17.39 1662.16,-20.29 1671.94,-24.38 1672.35,-17.39"/>
</g>
<!-- 26 -->
<g id="node27" class="node">
<title>26</title>
<path fill="none" stroke="#d8b456" stroke-width="2" d="M2125.5,-180C2125.5,-180 2092.5,-180 2092.5,-180 2086.5,-180 2080.5,-174 2080.5,-168 2080.5,-168 2080.5,-156 2080.5,-156 2080.5,-150 2086.5,-144 2092.5,-144 2092.5,-144 2125.5,-144 2125.5,-144 2131.5,-144 2137.5,-150 2137.5,-156 2137.5,-156 2137.5,-168 2137.5,-168 2137.5,-174 2131.5,-180 2125.5,-180"/>
<text text-anchor="middle" x="2109" y="-159.5" font-family="sans" font-size="10.00">bam_sort</text>
</g>
<!-- 26&#45;&gt;25 -->
<g id="edge36" class="edge">
<title>26&#45;&gt;25</title>
<path fill="none" stroke="grey" stroke-width="2" d="M2089.47,-143.7C2079.62,-134.97 2067.51,-124.24 2056.8,-114.75"/>
<polygon fill="grey" stroke="grey" stroke-width="2" points="2059.11,-112.12 2049.3,-108.1 2054.47,-117.36 2059.11,-112.12"/>
</g>
<!-- 33 -->
<g id="node34" class="node">
<title>33</title>
<path fill="none" stroke="#56d86b" stroke-width="2" d="M2131,-108C2131,-108 2087,-108 2087,-108 2081,-108 2075,-102 2075,-96 2075,-96 2075,-84 2075,-84 2075,-78 2081,-72 2087,-72 2087,-72 2131,-72 2131,-72 2137,-72 2143,-78 2143,-84 2143,-84 2143,-96 2143,-96 2143,-102 2137,-108 2131,-108"/>
<text text-anchor="middle" x="2109" y="-87.5" font-family="sans" font-size="10.00">bam_bigwig</text>
</g>
<!-- 26&#45;&gt;33 -->
<g id="edge44" class="edge">
<title>26&#45;&gt;33</title>
<path fill="none" stroke="grey" stroke-width="2" d="M2109,-143.7C2109,-135.98 2109,-126.71 2109,-118.11"/>
<polygon fill="grey" stroke="grey" stroke-width="2" points="2112.5,-118.1 2109,-108.1 2105.5,-118.1 2112.5,-118.1"/>
</g>
<!-- 27&#45;&gt;26 -->
<g id="edge37" class="edge">
<title>27&#45;&gt;26</title>
<path fill="none" stroke="grey" stroke-width="2" d="M2171.48,-215.7C2161.13,-206.97 2148.41,-196.24 2137.16,-186.75"/>
<polygon fill="grey" stroke="grey" stroke-width="2" points="2139.18,-183.88 2129.28,-180.1 2134.67,-189.23 2139.18,-183.88"/>
</g>
<!-- 28&#45;&gt;0 -->
<g id="edge8" class="edge">
<title>28&#45;&gt;0</title>
<path fill="none" stroke="grey" stroke-width="2" d="M1353.07,-74.87C1356.07,-73.83 1359.07,-72.86 1362,-72 1444.77,-47.83 1544.92,-31.59 1597.92,-23.98"/>
<polygon fill="grey" stroke="grey" stroke-width="2" points="1598.46,-27.44 1607.87,-22.57 1597.48,-20.5 1598.46,-27.44"/>
</g>
<!-- 29&#45;&gt;0 -->
<g id="edge9" class="edge">
<title>29&#45;&gt;0</title>
<path fill="none" stroke="grey" stroke-width="2" d="M1511.28,-73.81C1537.07,-62.39 1572.33,-46.76 1598.61,-35.12"/>
<polygon fill="grey" stroke="grey" stroke-width="2" points="1600.13,-38.28 1607.86,-31.03 1597.3,-31.88 1600.13,-38.28"/>
</g>
<!-- 30&#45;&gt;0 -->
<g id="edge10" class="edge">
<title>30&#45;&gt;0</title>
<path fill="none" stroke="grey" stroke-width="2" d="M1635,-71.7C1635,-63.98 1635,-54.71 1635,-46.11"/>
<polygon fill="grey" stroke="grey" stroke-width="2" points="1638.5,-46.1 1635,-36.1 1631.5,-46.1 1638.5,-46.1"/>
</g>
<!-- 31&#45;&gt;0 -->
<g id="edge11" class="edge">
<title>31&#45;&gt;0</title>
<path fill="none" stroke="grey" stroke-width="2" d="M1758.72,-73.81C1732.93,-62.39 1697.67,-46.76 1671.39,-35.12"/>
<polygon fill="grey" stroke="grey" stroke-width="2" points="1672.7,-31.88 1662.14,-31.03 1669.87,-38.28 1672.7,-31.88"/>
</g>
<!-- 32&#45;&gt;0 -->
<g id="edge12" class="edge">
<title>32&#45;&gt;0</title>
<path fill="none" stroke="grey" stroke-width="2" d="M1916.93,-74.87C1913.93,-73.83 1910.93,-72.86 1908,-72 1825.23,-47.83 1725.08,-31.59 1672.08,-23.98"/>
<polygon fill="grey" stroke="grey" stroke-width="2" points="1672.52,-20.5 1662.13,-22.57 1671.54,-27.44 1672.52,-20.5"/>
</g>
<!-- 33&#45;&gt;0 -->
<g id="edge13" class="edge">
<title>33&#45;&gt;0</title>
<path fill="none" stroke="grey" stroke-width="2" d="M2074.99,-74.65C2071.98,-73.66 2068.96,-72.75 2066,-72 1923.6,-35.73 1748.19,-23.97 1672.59,-20.42"/>
<polygon fill="grey" stroke="grey" stroke-width="2" points="1672.32,-16.9 1662.17,-19.95 1672,-23.89 1672.32,-16.9"/>
</g>
</g>
</svg>
