<?xml version="1.0" encoding="UTF-8" standalone="no"?>
<!DOCTYPE svg PUBLIC "-//W3C//DTD SVG 1.1//EN"
 "http://www.w3.org/Graphics/SVG/1.1/DTD/svg11.dtd">
<!-- Generated by graphviz version 2.47.2 (0)
 -->
<!-- Title: snakemake_dag Pages: 1 -->
<svg width="244pt" height="404pt"
 viewBox="0.00 0.00 243.50 404.00" xmlns="http://www.w3.org/2000/svg" xmlns:xlink="http://www.w3.org/1999/xlink">
<g id="graph0" class="graph" transform="scale(1 1) rotate(0) translate(4 400)">
<title>snakemake_dag</title>
<polygon fill="white" stroke="transparent" points="-4,4 -4,-400 239.5,-400 239.5,4 -4,4"/>
<!-- 0 -->
<g id="node1" class="node">
<title>0</title>
<path fill="none" stroke="#9fd856" stroke-width="2" d="M137.5,-36C137.5,-36 107.5,-36 107.5,-36 101.5,-36 95.5,-30 95.5,-24 95.5,-24 95.5,-12 95.5,-12 95.5,-6 101.5,0 107.5,0 107.5,0 137.5,0 137.5,0 143.5,0 149.5,-6 149.5,-12 149.5,-12 149.5,-24 149.5,-24 149.5,-30 143.5,-36 137.5,-36"/>
<text text-anchor="middle" x="122.5" y="-15.5" font-family="sans" font-size="10.00">all</text>
</g>
<!-- 1 -->
<g id="node2" class="node">
<title>1</title>
<path fill="none" stroke="#56d8c9" stroke-width="2" d="M65,-108C65,-108 12,-108 12,-108 6,-108 0,-102 0,-96 0,-96 0,-84 0,-84 0,-78 6,-72 12,-72 12,-72 65,-72 65,-72 71,-72 77,-78 77,-84 77,-84 77,-96 77,-96 77,-102 71,-108 65,-108"/>
<text text-anchor="middle" x="38.5" y="-87.5" font-family="sans" font-size="10.00">reads_multiqc</text>
</g>
<!-- 1&#45;&gt;0 -->
<g id="edge1" class="edge">
<title>1&#45;&gt;0</title>
<path fill="none" stroke="grey" stroke-width="2" d="M59.26,-71.7C69.74,-62.97 82.61,-52.24 94,-42.75"/>
<polygon fill="grey" stroke="grey" stroke-width="2" points="96.53,-45.19 101.97,-36.1 92.05,-39.82 96.53,-45.19"/>
</g>
<!-- 2 -->
<g id="node3" class="node">
<title>2</title>
<path fill="none" stroke="#56b1d8" stroke-width="2" d="M63,-180C63,-180 14,-180 14,-180 8,-180 2,-174 2,-168 2,-168 2,-156 2,-156 2,-150 8,-144 14,-144 14,-144 63,-144 63,-144 69,-144 75,-150 75,-156 75,-156 75,-168 75,-168 75,-174 69,-180 63,-180"/>
<text text-anchor="middle" x="38.5" y="-159.5" font-family="sans" font-size="10.00">reads_fastqc</text>
</g>
<!-- 2&#45;&gt;1 -->
<g id="edge4" class="edge">
<title>2&#45;&gt;1</title>
<path fill="none" stroke="grey" stroke-width="2" d="M38.5,-143.7C38.5,-135.98 38.5,-126.71 38.5,-118.11"/>
<polygon fill="grey" stroke="grey" stroke-width="2" points="42,-118.1 38.5,-108.1 35,-118.1 42,-118.1"/>
</g>
<!-- 3 -->
<g id="node4" class="node">
<title>3</title>
<path fill="none" stroke="#ced856" stroke-width="2" d="M137.5,-108C137.5,-108 107.5,-108 107.5,-108 101.5,-108 95.5,-102 95.5,-96 95.5,-96 95.5,-84 95.5,-84 95.5,-78 101.5,-72 107.5,-72 107.5,-72 137.5,-72 137.5,-72 143.5,-72 149.5,-78 149.5,-84 149.5,-84 149.5,-96 149.5,-96 149.5,-102 143.5,-108 137.5,-108"/>
<text text-anchor="middle" x="122.5" y="-87.5" font-family="sans" font-size="10.00">callpeak</text>
</g>
<!-- 3&#45;&gt;0 -->
<g id="edge2" class="edge">
<title>3&#45;&gt;0</title>
<path fill="none" stroke="grey" stroke-width="2" d="M122.5,-71.7C122.5,-63.98 122.5,-54.71 122.5,-46.11"/>
<polygon fill="grey" stroke="grey" stroke-width="2" points="126,-46.1 122.5,-36.1 119,-46.1 126,-46.1"/>
</g>
<!-- 4 -->
<g id="node5" class="node">
<title>4</title>
<path fill="none" stroke="#56d89a" stroke-width="2" d="M178,-180C178,-180 145,-180 145,-180 139,-180 133,-174 133,-168 133,-168 133,-156 133,-156 133,-150 139,-144 145,-144 145,-144 178,-144 178,-144 184,-144 190,-150 190,-156 190,-156 190,-168 190,-168 190,-174 184,-180 178,-180"/>
<text text-anchor="middle" x="161.5" y="-159.5" font-family="sans" font-size="10.00">bam_sort</text>
</g>
<!-- 4&#45;&gt;3 -->
<g id="edge5" class="edge">
<title>4&#45;&gt;3</title>
<path fill="none" stroke="grey" stroke-width="2" d="M151.86,-143.7C147.37,-135.64 141.94,-125.89 136.98,-116.98"/>
<polygon fill="grey" stroke="grey" stroke-width="2" points="139.95,-115.14 132.03,-108.1 133.84,-118.54 139.95,-115.14"/>
</g>
<!-- 8 -->
<g id="node9" class="node">
<title>8</title>
<path fill="none" stroke="#d85656" stroke-width="2" d="M223.5,-108C223.5,-108 179.5,-108 179.5,-108 173.5,-108 167.5,-102 167.5,-96 167.5,-96 167.5,-84 167.5,-84 167.5,-78 173.5,-72 179.5,-72 179.5,-72 223.5,-72 223.5,-72 229.5,-72 235.5,-78 235.5,-84 235.5,-84 235.5,-96 235.5,-96 235.5,-102 229.5,-108 223.5,-108"/>
<text text-anchor="middle" x="201.5" y="-87.5" font-family="sans" font-size="10.00">bam_bigwig</text>
</g>
<!-- 4&#45;&gt;8 -->
<g id="edge9" class="edge">
<title>4&#45;&gt;8</title>
<path fill="none" stroke="grey" stroke-width="2" d="M171.39,-143.7C175.99,-135.64 181.56,-125.89 186.65,-116.98"/>
<polygon fill="grey" stroke="grey" stroke-width="2" points="189.8,-118.52 191.73,-108.1 183.73,-115.05 189.8,-118.52"/>
</g>
<!-- 5 -->
<g id="node6" class="node">
<title>5</title>
<path fill="none" stroke="#56d86b" stroke-width="2" d="M190.5,-252C190.5,-252 132.5,-252 132.5,-252 126.5,-252 120.5,-246 120.5,-240 120.5,-240 120.5,-228 120.5,-228 120.5,-222 126.5,-216 132.5,-216 132.5,-216 190.5,-216 190.5,-216 196.5,-216 202.5,-222 202.5,-228 202.5,-228 202.5,-240 202.5,-240 202.5,-246 196.5,-252 190.5,-252"/>
<text text-anchor="middle" x="161.5" y="-231.5" font-family="sans" font-size="10.00">align_reads_se</text>
</g>
<!-- 5&#45;&gt;4 -->
<g id="edge6" class="edge">
<title>5&#45;&gt;4</title>
<path fill="none" stroke="grey" stroke-width="2" d="M161.5,-215.7C161.5,-207.98 161.5,-198.71 161.5,-190.11"/>
<polygon fill="grey" stroke="grey" stroke-width="2" points="165,-190.1 161.5,-180.1 158,-190.1 165,-190.1"/>
</g>
<!-- 6 -->
<g id="node7" class="node">
<title>6</title>
<path fill="none" stroke="#5682d8" stroke-width="2" d="M189,-324C189,-324 134,-324 134,-324 128,-324 122,-318 122,-312 122,-312 122,-300 122,-300 122,-294 128,-288 134,-288 134,-288 189,-288 189,-288 195,-288 201,-294 201,-300 201,-300 201,-312 201,-312 201,-318 195,-324 189,-324"/>
<text text-anchor="middle" x="161.5" y="-303.5" font-family="sans" font-size="10.00">bowtie2_index</text>
</g>
<!-- 6&#45;&gt;5 -->
<g id="edge7" class="edge">
<title>6&#45;&gt;5</title>
<path fill="none" stroke="grey" stroke-width="2" d="M161.5,-287.7C161.5,-279.98 161.5,-270.71 161.5,-262.11"/>
<polygon fill="grey" stroke="grey" stroke-width="2" points="165,-262.1 161.5,-252.1 158,-262.1 165,-262.1"/>
</g>
<!-- 7 -->
<g id="node8" class="node">
<title>7</title>
<path fill="none" stroke="#d88556" stroke-width="2" d="M201.5,-396C201.5,-396 121.5,-396 121.5,-396 115.5,-396 109.5,-390 109.5,-384 109.5,-384 109.5,-372 109.5,-372 109.5,-366 115.5,-360 121.5,-360 121.5,-360 201.5,-360 201.5,-360 207.5,-360 213.5,-366 213.5,-372 213.5,-372 213.5,-384 213.5,-384 213.5,-390 207.5,-396 201.5,-396"/>
<text text-anchor="middle" x="161.5" y="-375.5" font-family="sans" font-size="10.00">download_reference</text>
</g>
<!-- 7&#45;&gt;6 -->
<g id="edge8" class="edge">
<title>7&#45;&gt;6</title>
<path fill="none" stroke="grey" stroke-width="2" d="M161.5,-359.7C161.5,-351.98 161.5,-342.71 161.5,-334.11"/>
<polygon fill="grey" stroke="grey" stroke-width="2" points="165,-334.1 161.5,-324.1 158,-334.1 165,-334.1"/>
</g>
<!-- 8&#45;&gt;0 -->
<g id="edge3" class="edge">
<title>8&#45;&gt;0</title>
<path fill="none" stroke="grey" stroke-width="2" d="M181.97,-71.7C172.12,-62.97 160.01,-52.24 149.3,-42.75"/>
<polygon fill="grey" stroke="grey" stroke-width="2" points="151.61,-40.12 141.8,-36.1 146.97,-45.36 151.61,-40.12"/>
</g>
</g>
</svg>
